<?xml version="1.0" encoding="utf-8"?>
<svg viewBox="0 0 448 512" xmlns="http://www.w3.org/2000/svg">
  <path d="M384 32C419.3 32 448 60.65 448 96V416C448 451.3 419.3 480 384 480H64C28.65 480 0 451.3 0 416V96C0 60.65 28.65 32 64 32H384zM384 80H64C55.16 80 48 87.16 48 96V416C48 424.8 55.16 432 64 432H384C392.8 432 400 424.8 400 416V96C400 87.16 392.8 80 384 80z"/>
  <path d="M 220.729 144.64 L 200.588 144.64 L 203.973 124.323 C 204.979 118.29 200.903 112.59 194.877 111.583 C 188.813 110.589 183.144 114.658 182.137 120.68 L 178.15 144.64 L 145.254 144.64 L 148.641 124.323 C 149.645 118.29 145.57 112.59 139.543 111.583 C 133.48 110.589 127.81 114.658 126.803 120.68 L 122.806 144.64 L 98.974 144.64 C 92.861 144.64 87.904 149.596 87.904 155.708 C 87.904 162.144 92.861 166.778 98.974 166.778 L 119.115 166.778 L 111.738 211.053 L 87.904 211.053 C 81.793 211.053 76.836 216.009 76.836 222.121 C 76.836 228.233 81.793 232.878 87.904 232.878 L 108.047 232.878 L 104.661 253.197 C 103.654 259.229 107.732 264.929 113.758 265.935 C 114.365 266.674 114.989 266.706 115.577 266.706 C 120.889 266.706 125.58 262.871 126.482 257.46 L 130.475 233.501 L 163.377 233.501 L 159.99 253.82 C 158.985 259.852 163.059 265.552 169.087 266.559 C 169.709 266.674 170.332 266.706 170.919 266.706 C 176.233 266.706 180.924 262.871 181.828 257.46 L 185.818 233.501 L 209.66 233.501 C 215.772 233.501 220.729 228.545 220.729 222.744 C 220.729 216.631 215.772 211.675 209.66 211.675 L 189.52 211.675 L 196.896 167.401 L 220.729 167.401 C 226.841 167.401 231.797 162.448 231.797 156.642 C 231.797 149.898 226.851 144.64 220.729 144.64 Z M 167.08 211.053 L 134.186 211.053 L 141.553 166.778 L 174.455 166.778 L 167.08 211.053 Z" style=""/>
</svg>